# xmcd
#
# Track frame offsets: 
#        150
#        18267
#        38900
#        69742
#        88020
#        110665
#        134465
#        163777
#        184642
#        208275
#
# Disc length: 3116 seconds
#
# Revision: 4
# Processed by: cddbd v1.5.2PL0 Copyright (c) Steve Scherf et al.
# Submitted via: ExactAudioCopy v1.0b3
#
DISCID=8f0c2a0a
DTITLE=古内東子 - Hug
DYEAR=1994
DGENRE=JPop
TTITLE0=恋上手
TTITLE1=もっと
TTITLE2=うそつき
TTITLE3=Girl is...
TTITLE4=あなたのためにできること
TTITLE5=Peach Melba
TTITLE6=さびたリング
TTITLE7=Lighter
TTITLE8=Weekend
TTITLE9=Hug
EXTD=yuji hatano YEAR: 1994
EXTT0=
EXTT1=
EXTT2=
EXTT3=
EXTT4=
EXTT5=
EXTT6=
EXTT7=
EXTT8=
EXTT9=
PLAYORDER=
